Patient4_TMGait_0pt2_02_left_02_GRF.mot
version=1
nRows=39
nColumns=19
inDegrees=no
endheader
time	F1x	F1y	F1z	M1x	M1y	M1z	F2x	F2y	F2z	M2x	M2y	M2z	EC1x	EC1y	EC1z	EC2x	EC2y	EC2z
4.17	-2.243	10.7292	4.4994	-3.7289	-4.8697	10.3544	-21.5706	826.593	-46.2259	324.9039	62.8234	883.4887	-0.0592	0.0182	-0.0073	-0.0462	0.0165	0.9585
4.1934	-1.9985	8.1522	3.4328	-2.7809	-3.8351	7.9203	-22.0467	837.8772	-46.3417	329.1998	62.3375	893.6523	-0.0592	0.0182	-0.0073	-0.0462	0.0165	0.9585
4.2167	-1.6163	5.634	2.3844	-1.8762	-2.7699	5.5302	-22.0465	848.8021	-46.4246	333.2894	61.5399	902.9602	-0.0592	0.0182	-0.0073	-0.0462	0.0165	0.9585
4.2401	-1.194	3.4768	1.4828	-1.1169	-1.8208	3.482	-21.49	857.3338	-46.4063	336.3973	60.3614	909.3018	-0.0592	0.0182	-0.0073	-0.0462	0.0165	0.9585
4.2634	-0.81351	1.8149	0.79182	-0.54418	-1.071	1.91	-20.3732	861.732	-46.2191	337.8794	58.7535	910.8847	-0.0592	0.0182	-0.0073	-0.0462	0.0165	0.9585
4.2868	-0.51475	0.643	0.31519	-0.14906	-0.53803	0.80383	-18.7227	861.0744	-45.8001	337.4198	56.683	906.7744	-0.0592	0.0182	-0.0073	-0.0462	0.0165	0.9585
4.3101	-0.30909	-0.12868	0.024031	0.1056	-0.2007	0.072629	-16.5778	855.4244	-45.0963	335.0866	54.1342	897.0625	-0.0592	0.0182	-0.0073	-0.0462	0.0165	0.9585
4.3335	-0.18954	-0.63245	-0.12557	0.26867	-0.017327	-0.41351	-13.9799	845.6516	-44.091	331.2485	51.1284	882.6741	-0.0592	0.0182	-0.0073	-0.0462	0.0165	0.9585
4.3569	-0.13853	-1.0166	-0.17893	0.39117	0.058401	-0.79992	-10.9668	833.022	-42.8193	326.4079	47.733	864.9584	-0.0592	0.0182	-0.0073	-0.0462	0.0165	0.9585
4.3802	-0.13705	-1.4235	-0.17574	0.52068	0.067696	-1.2265	-7.5804	818.7726	-41.3595	321.0348	44.0562	845.2548	-0.0592	0.0182	-0.0073	-0.0462	0.0165	0.9585
4.4036	-0.17018	-1.972	-0.1494	0.69757	0.044962	-1.8084	-3.8782	803.8507	-39.8082	315.4726	40.2263	824.636	-0.0592	0.0182	-0.0073	-0.0462	0.0165	0.9585
4.4269	-0.22188	-2.7454	-0.12831	0.94957	0.020582	-2.6303	0.068114	788.8556	-38.2548	309.9224	36.3689	803.8486	-0.0592	0.0182	-0.0073	-0.0462	0.0165	0.9585
4.4503	-0.27377	-3.7701	-0.13875	1.2837	0.026143	-3.722	4.144	774.1543	-36.7648	304.497	32.6044	783.4266	-0.0592	0.0182	-0.0073	-0.0462	0.0165	0.9585
4.4736	-0.30664	-4.9822	-0.20393	1.6758	0.092808	-5.0196	8.1762	760.1254	-35.3836	299.3215	29.0561	763.9204	-0.0592	0.0182	-0.0073	-0.0462	0.0165	0.9585
4.497	-0.30123	-6.1876	-0.34133	2.0603	0.24688	-6.325	11.957	747.3562	-34.1552	294.6124	25.8593	746.0656	-0.0592	0.0182	-0.0073	-0.0462	0.0165	0.9585
4.5204	-0.2346	-7.0233	-0.56102	2.3164	0.50731	-7.2609	15.2773	736.6377	-33.1382	290.6742	23.1636	730.7577	-0.0592	0.0182	-0.0073	-0.0462	0.0165	0.9585
4.5437	-0.074266	-6.9166	-0.86051	2.2542	0.88182	-7.2218	17.9649	728.7238	-32.4067	287.8011	21.1137	718.7919	-0.0592	0.0182	-0.0073	-0.0462	0.0165	0.9585
4.5671	0.21946	-5.0562	-1.2137	1.605	1.3566	-5.3389	19.9143	723.9494	-32.0344	286.1239	19.8212	710.4925	-0.0592	0.0182	-0.0073	-0.0462	0.0165	0.9585
4.5904	0.68719	-0.39888	-1.5603	0.025631	1.8816	-0.48926	21.0942	721.8927	-32.0717	285.4737	19.3371	705.4062	-0.0592	0.0182	-0.0073	-0.0462	0.0165	0.9585
4.6138	1.3576	8.2583	-1.7932	-2.8763	2.3527	8.6195	21.5416	721.2853	-32.5231	285.3438	19.6328	702.2372	-0.0592	0.0182	-0.0073	-0.0462	0.0165	0.9585
4.6371	2.2307	22.0982	-1.7487	-7.4814	2.5907	23.2585	21.3478	720.1983	-33.318	284.9669	20.5778	699.0412	-0.0592	0.0182	-0.0073	-0.0462	0.0165	0.9585
4.6605	3.2541	41.9505	-1.1948	-14.0497	2.3237	44.332	20.6451	716.3448	-34.2958	283.4378	21.9399	693.5347	-0.0592	0.0182	-0.0073	-0.0462	0.0165	0.9585
4.6839	4.2822	67.7901	0.16342	-22.5534	1.1808	71.8532	19.5905	707.4511	-35.2433	279.8601	23.4317	683.464	-0.0592	0.0182	-0.0073	-0.0462	0.0165	0.9585
4.7072	4.9267	98.2457	2.6042	-32.5148	-1.269	104.4098	18.3566	691.7345	-35.9522	273.5358	24.7689	667.061	-0.0592	0.0182	-0.0073	-0.0462	0.0165	0.9585
4.7306	4.7796	130.9035	6.0831	-43.125	-5.109	139.4756	17.1223	668.5074	-36.2626	264.208	25.7179	643.6113	-0.0592	0.0182	-0.0073	-0.0462	0.0165	0.9585
4.7539	3.7361	163.869	10.0323	-53.7797	-9.7598	175.0456	16.0562	638.6254	-36.095	252.2355	26.1338	613.8795	-0.0592	0.0182	-0.0073	-0.0462	0.0165	0.9585
4.7773	1.8524	196.4504	13.8561	-64.2772	-14.5627	210.3854	15.2777	604.2298	-35.4562	238.486	25.976	579.8659	-0.0592	0.0182	-0.0073	-0.0462	0.0165	0.9585
4.8006	-0.77095	228.7172	17.1889	-74.6493	-19.096	245.5784	14.8053	567.9107	-34.4287	223.9994	25.3155	544.0253	-0.0592	0.0182	-0.0073	-0.0462	0.0165	0.9585
4.824	-3.95	260.7415	19.9272	-84.9101	-23.1925	280.686	14.5584	531.8739	-33.1556	209.6553	24.3198	508.4762	-0.0592	0.0182	-0.0073	-0.0462	0.0165	0.9585
4.8474	-7.373	292.2127	22.1781	-94.9371	-26.8669	315.318	14.4044	497.5585	-31.8118	196.0226	23.2045	474.6213	-0.0592	0.0182	-0.0073	-0.0462	0.0165	0.9585
4.8707	-10.6623	322.5066	24.1191	-104.5042	-30.1848	348.7126	14.2098	465.6602	-30.5358	183.3746	22.1521	443.1566	-0.0592	0.0182	-0.0073	-0.0462	0.0165	0.9585
4.8941	-13.496	350.9861	25.8691	-113.3911	-33.1673	380.0788	13.8803	436.3229	-29.3777	171.7685	21.25	414.2442	-0.0592	0.0182	-0.0073	-0.0462	0.0165	0.9585
4.9174	-15.663	377.3395	27.4589	-121.4985	-35.7744	408.9811	13.386	409.3408	-28.3139	161.1258	20.4922	387.6987	-0.0592	0.0182	-0.0073	-0.0462	0.0165	0.9585
4.9408	-17.0672	401.6321	28.8963	-128.8575	-37.9743	435.413	12.7684	384.3084	-27.2885	151.286	19.816	363.1278	-0.0592	0.0182	-0.0073	-0.0462	0.0165	0.9585
4.9641	-17.7298	424.1254	30.2039	-135.5621	-39.7852	459.6128	12.1198	360.7238	-26.2495	142.0447	19.1425	340.0393	-0.0592	0.0182	-0.0073	-0.0462	0.0165	0.9585
4.9875	-17.7569	445.0677	31.4082	-141.7013	-41.2567	481.8464	11.5443	338.0966	-25.1689	133.1972	18.4086	317.9533	-0.0592	0.0182	-0.0073	-0.0462	0.0165	0.9585
5.0109	-17.294	464.5474	32.5108	-147.3153	-42.4305	502.2463	11.1103	316.0644	-24.0391	124.588	17.5835	296.5181	-0.0592	0.0182	-0.0073	-0.0462	0.0165	0.9585
5.0342	-16.4913	482.4706	33.4746	-152.3925	-43.309	520.7731	10.8278	294.4622	-22.8631	116.1417	16.6697	275.5745	-0.0592	0.0182	-0.0073	-0.0462	0.0165	0.9585
5.0576	-15.4678	498.6133	34.2268	-156.8862	-43.8456	537.2519	10.6559	273.3311	-21.6475	107.8669	15.6908	255.1622	-0.0592	0.0182	-0.0073	-0.0462	0.0165	0.9585
